# Blender v2.93.0 Beta OBJ File: 'Frame workshop.blend'
# www.blender.org
mtllib only Frame as single object.mtl
o Single_object_frame_Cube
v 1.000000 2.000000 1.000000
v 1.000000 0.000000 1.000000
v -1.000000 2.000000 1.000000
v -1.000000 0.000000 1.000000
v -1.000000 0.000000 1.026031
v -1.000000 2.000000 1.026031
v 1.000000 2.000000 1.026031
v 1.000000 0.000000 1.026031
v -0.839707 0.160293 1.056878
v -0.839707 1.839707 1.056878
v 0.839707 1.839707 1.056878
v 0.839707 0.160293 1.056878
v 0.917280 1.917280 1.091853
v 0.857238 1.857238 1.094172
v 0.857238 0.142762 1.094172
v 0.917280 0.082720 1.091853
v -0.857238 1.857238 1.094172
v -0.917280 1.917280 1.091853
v -0.917280 0.082720 1.091853
v -0.857238 0.142762 1.094172
vt 0.008718 0.990135
vt 0.016548 0.015690
vt 0.085340 0.074870
vt 0.068635 0.920434
vt 0.155815 0.151389
vt 0.853709 0.151536
vt 0.837786 0.169380
vt 0.173459 0.167146
vt 0.931023 0.080246
vt 0.990940 0.010546
vt 0.983111 0.984991
vt 0.914319 0.925811
vt 0.817246 0.190166
vt 0.812228 0.814735
vt 0.187659 0.809716
vt 0.192677 0.185147
vt 0.145950 0.849144
vt 0.161873 0.831301
vt 0.866563 0.873599
vt 0.878261 0.128570
vt 0.843844 0.849291
vt 0.826199 0.833535
vt 0.121398 0.872110
vt 0.133095 0.127081
vn 0.0000 1.0000 0.0000
vn 0.9050 0.0000 0.4254
vn -1.0000 0.0000 0.0000
vn 0.0000 -1.0000 0.0000
vn 1.0000 0.0000 0.0000
vn 0.0000 0.0000 -1.0000
vn 0.0000 -0.9050 0.4254
vn 0.0000 -0.6226 0.7825
vn 0.0000 0.9050 0.4254
vn 0.6226 0.0000 0.7825
vn 0.0000 0.6226 0.7825
vn -0.6226 0.0000 0.7825
vn -0.0386 0.0000 0.9993
vn 0.0386 0.0000 0.9993
vn 0.0000 0.0386 0.9993
vn 0.0000 -0.0386 0.9993
vn -0.9050 0.0000 0.4254
usemtl Frame
s off
f 1/1/1 3/2/1 6/3/1 7/4/1
f 17/5/2 20/6/2 9/7/2 10/8/2
f 5/9/3 6/3/3 3/2/3 4/10/3
f 4/10/4 2/11/4 8/12/4 5/9/4
f 2/11/5 1/1/5 7/4/5 8/12/5
f 4/13/6 3/14/6 1/15/6 2/16/6
f 14/17/7 17/5/7 10/8/7 11/18/7
f 16/19/8 19/20/8 5/9/8 8/12/8
f 20/6/9 15/21/9 12/22/9 9/7/9
f 13/23/10 16/19/10 8/12/10 7/4/10
f 18/24/11 13/23/11 7/4/11 6/3/11
f 19/20/12 18/24/12 6/3/12 5/9/12
f 20/6/13 17/5/13 18/24/13 19/20/13
f 14/17/14 15/21/14 16/19/14 13/23/14
f 13/23/15 18/24/15 17/5/15 14/17/15
f 19/20/16 16/19/16 15/21/16 20/6/16
f 15/21/17 14/17/17 11/18/17 12/22/17
