# Blender v2.92.0 OBJ File: 'Vanishing point.blend'
# www.blender.org
mtllib Vanishing point trunk.mtl
o Vanishing_Point_Model_transparent_parts.001_Vanishing_Point_Model.006
v 0.031762 0.337087 0.033519
v 0.033645 0.337086 0.024044
v 0.031759 0.337086 0.014572
v 0.026392 0.337086 0.006547
v 0.018363 0.337086 0.001184
v 0.008894 0.337086 -0.000698
v -0.000576 0.337088 0.001191
v -0.008604 0.337090 0.006564
v -0.013970 0.337092 0.014601
v -0.015857 0.337093 0.024077
v -0.013974 0.337093 0.033549
v -0.008610 0.337092 0.041575
v -0.000581 0.337091 0.046933
v 0.008892 0.337089 0.048809
v 0.018366 0.337087 0.046917
v 0.026397 0.337086 0.041548
v -0.011371 0.223942 -0.016949
v -0.022604 0.223904 -0.009318
v -0.030139 0.223899 0.001979
v -0.032833 0.223931 0.015215
v -0.030137 0.223883 0.028658
v -0.022567 0.223852 0.040038
v -0.011341 0.223896 0.047484
v 0.001841 0.224003 0.049873
v 0.014970 0.224156 0.046842
v 0.026051 0.224326 0.038868
v 0.033591 0.224328 0.027566
v 0.036423 0.224178 0.014619
v 0.033971 0.224016 0.001703
v 0.026569 0.223902 -0.009302
v 0.015353 0.223848 -0.016707
v 0.002031 0.223862 -0.019395
v 0.020603 0.166557 -0.008136
v 0.004363 0.166540 -0.005082
v 0.019377 0.119447 -0.023654
v -0.002116 0.119410 -0.019321
v -0.009413 0.166555 0.004055
v -0.020389 0.119433 -0.007188
v -0.018628 0.166595 0.017867
v -0.032656 0.119511 0.010914
v -0.021858 0.166601 0.034015
v -0.037044 0.119625 0.032231
v -0.018626 0.166615 0.050230
v -0.032887 0.119763 0.053530
v -0.009404 0.166594 0.063870
v -0.020815 0.119900 0.071553
v 0.004384 0.166588 0.073057
v -0.002665 0.120016 0.083575
v 0.020637 0.166606 0.076433
v 0.018802 0.120090 0.087756
v 0.036879 0.166645 0.073480
v 0.040316 0.120112 0.083449
v 0.050635 0.166699 0.064638
v 0.058594 0.120084 0.071306
v 0.059834 0.166700 0.051002
v 0.070849 0.120015 0.053168
v 0.063054 0.166694 0.034845
v 0.075220 0.119912 0.031808
v 0.059811 0.166681 0.018630
v 0.071045 0.119788 0.010486
v 0.050598 0.166663 0.004825
v 0.058964 0.119658 -0.007548
v 0.036836 0.166603 -0.004646
v 0.040824 0.119536 -0.019529
vt 0.409351 0.550276
vt 0.408174 0.550227
vt 0.407106 0.550012
vt 0.406258 0.549538
vt 0.405602 0.548875
vt 0.405196 0.548019
vt 0.405082 0.546993
vt 0.405094 0.545954
vt 0.404385 0.545210
vt 0.403905 0.544378
vt 0.403729 0.543481
vt 0.403875 0.542551
vt 0.404413 0.541632
vt 0.405254 0.540723
vt 0.410739 0.544019
vt 0.410739 0.549992
vt 0.069689 0.845522
vt 0.068926 0.849102
vt 0.035421 0.849184
vt 0.035505 0.844422
vt 0.069397 0.841910
vt 0.035574 0.839558
vt 0.069274 0.838216
vt 0.035797 0.834656
vt 0.069221 0.834649
vt 0.036169 0.829669
vt 0.068807 0.830670
vt 0.036779 0.824826
vt 0.068645 0.826654
vt 0.037766 0.820196
vt 0.039191 0.815745
vt 0.069489 0.823105
vt 0.040978 0.811617
vt 0.069767 0.819128
vt 0.042955 0.807857
vt 0.070965 0.816477
vt 0.040231 0.877850
vt 0.070643 0.870535
vt 0.070965 0.873985
vt 0.042018 0.881747
vt 0.038656 0.873524
vt 0.070380 0.866975
vt 0.037383 0.868825
vt 0.069572 0.864395
vt 0.036446 0.863955
vt 0.069798 0.860683
vt 0.035830 0.858994
vt 0.069999 0.856256
vt 0.035502 0.854013
vt 0.069375 0.852727
vt 0.018259 0.856240
vt 0.018057 0.850248
vt 0.003289 0.855278
vt 0.003071 0.849050
vt 0.018045 0.844129
vt 0.002990 0.842915
vt 0.018055 0.837657
vt 0.003324 0.836721
vt 0.018132 0.831049
vt 0.003621 0.830389
vt 0.018327 0.824787
vt 0.003999 0.824010
vt 0.018641 0.818951
vt 0.004563 0.817702
vt 0.019212 0.813543
vt 0.005457 0.811566
vt 0.020207 0.808617
vt 0.006913 0.805524
vt 0.021850 0.804058
vt 0.009138 0.799619
vt 0.024265 0.799848
vt 0.012244 0.793991
vt 0.024464 0.890489
vt 0.022372 0.885947
vt 0.009340 0.888698
vt 0.012163 0.894636
vt 0.020825 0.880734
vt 0.007136 0.882247
vt 0.019750 0.874967
vt 0.005511 0.875428
vt 0.019039 0.868799
vt 0.004392 0.868545
vt 0.018561 0.862414
vt 0.003685 0.861804
vn 0.7446 0.5890 0.3141
vn 0.7941 0.6078 0.0064
vn 0.7209 0.6257 -0.2981
vn 0.5407 0.6410 -0.5447
vn 0.2884 0.6541 -0.6993
vn 0.0042 0.6651 -0.7467
vn -0.2811 0.6736 -0.6836
vn -0.5235 0.6745 -0.5206
vn -0.6853 0.6701 -0.2851
vn -0.7521 0.6591 -0.0000
vn -0.7078 0.6427 0.2931
vn -0.5509 0.6271 0.5506
vn -0.2985 0.6115 0.7328
vn 0.0116 0.5956 0.8032
vn 0.3260 0.5826 0.7445
vn 0.5827 0.5783 0.5709
vn -0.3793 -0.0055 -0.9253
vn -0.7082 -0.0174 -0.7058
vn -0.9233 -0.0102 -0.3839
vn -0.9999 0.0149 -0.0000
vn -0.9224 0.0533 0.3824
vn -0.7032 0.0990 0.7040
vn -0.3748 0.1456 0.9156
vn 0.0090 0.1864 0.9824
vn 0.3851 0.2152 0.8974
vn 0.6928 0.2271 0.6844
vn 0.8989 0.2207 0.3786
vn 0.9806 0.1958 0.0063
vn 0.9126 0.1560 -0.3780
vn 0.7015 0.1090 -0.7043
vn 0.3837 0.0628 -0.9213
vn 0.0078 0.0229 -0.9997
vn 0.0065 0.0740 -0.9972
vn -0.3786 0.0272 -0.9251
vn 0.0020 0.3136 -0.9496
vn -0.3604 0.3159 -0.8777
vn -0.7061 0.0108 -0.7080
vn -0.6678 0.3170 -0.6734
vn -0.9222 0.0270 -0.3858
vn -0.8748 0.3149 -0.3682
vn -0.9975 0.0710 -0.0022
vn -0.9515 0.3076 -0.0043
vn -0.9154 0.1351 0.3791
vn -0.8832 0.2946 0.3648
vn -0.6903 0.2075 0.6932
vn -0.6779 0.2770 0.6810
vn -0.3670 0.2759 0.8884
vn -0.3697 0.2566 0.8930
vn -0.0015 0.3317 0.9434
vn -0.0043 0.2361 0.9717
vn 0.3527 0.3693 0.8598
vn 0.3656 0.2209 0.9042
vn 0.6506 0.3842 0.6550
vn 0.6856 0.2180 0.6946
vn 0.8554 0.3737 0.3586
vn 0.8979 0.2297 0.3756
vn 0.9408 0.3388 0.0023
vn 0.9679 0.2515 0.0012
vn 0.8857 0.2832 -0.3678
vn 0.8876 0.2761 -0.3687
vn 0.6908 0.2140 -0.6907
vn 0.6749 0.2964 -0.6757
vn 0.3829 0.1407 -0.9130
vn 0.3654 0.3084 -0.8783
usemtl vanishing_point_tool_outer_hull_material
s 1
f 1/1/1 2/2/2 3/3/3 4/4/4 5/5/5 6/6/6 7/7/7 8/8/8 9/9/9 10/10/10 11/11/11 12/12/12 13/13/13 14/14/14 15/15/15 16/16/16
f 8/17/8 7/18/7 17/19/17 18/20/18
f 9/21/9 8/17/8 18/20/18 19/22/19
f 10/23/10 9/21/9 19/22/19 20/24/20
f 11/25/11 10/23/10 20/24/20 21/26/21
f 12/27/12 11/25/11 21/26/21 22/28/22
f 13/29/13 12/27/12 22/28/22 23/30/23
f 24/31/24 14/32/14 13/29/13 23/30/23
f 25/33/25 15/34/15 14/32/14 24/31/24
f 26/35/26 16/36/16 15/34/15 25/33/25
f 27/37/27 1/38/1 16/39/16 26/40/26
f 28/41/28 2/42/2 1/38/1 27/37/27
f 28/41/28 29/43/29 3/44/3 2/42/2
f 3/44/3 29/43/29 30/45/30 4/46/4
f 4/46/4 30/45/30 31/47/31 5/48/5
f 5/48/5 31/47/31 32/49/32 6/50/6
f 33/51/33 34/52/34 17/19/17 32/49/32
f 33/51/33 35/53/35 36/54/36 34/52/34
f 34/52/34 37/55/37 18/20/18 17/19/17
f 34/52/34 36/54/36 38/56/38 37/55/37
f 37/55/37 39/57/39 19/22/19 18/20/18
f 39/57/39 37/55/37 38/56/38 40/58/40
f 39/57/39 41/59/41 20/24/20 19/22/19
f 41/59/41 39/57/39 40/58/40 42/60/42
f 41/59/41 43/61/43 21/26/21 20/24/20
f 43/61/43 41/59/41 42/60/42 44/62/44
f 43/61/43 45/63/45 22/28/22 21/26/21
f 45/63/45 43/61/43 44/62/44 46/64/46
f 45/63/45 47/65/47 23/30/23 22/28/22
f 48/66/48 47/65/47 45/63/45 46/64/46
f 47/65/47 49/67/49 24/31/24 23/30/23
f 50/68/50 49/67/49 47/65/47 48/66/48
f 49/67/49 51/69/51 25/33/25 24/31/24
f 52/70/52 51/69/51 49/67/49 50/68/50
f 51/69/51 53/71/53 26/35/26 25/33/25
f 54/72/54 53/71/53 51/69/51 52/70/52
f 53/73/53 55/74/55 27/37/27 26/40/26
f 56/75/56 55/74/55 53/73/53 54/76/54
f 55/74/55 57/77/57 28/41/28 27/37/27
f 56/75/56 58/78/58 57/77/57 55/74/55
f 57/77/57 59/79/59 29/43/29 28/41/28
f 58/78/58 60/80/60 59/79/59 57/77/57
f 59/79/59 61/81/61 30/45/30 29/43/29
f 59/79/59 60/80/60 62/82/62 61/81/61
f 61/81/61 63/83/63 31/47/31 30/45/30
f 61/81/61 62/82/62 64/84/64 63/83/63
f 63/83/63 33/51/33 32/49/32 31/47/31
f 63/83/63 64/84/64 35/53/35 33/51/33
f 6/50/6 32/49/32 17/19/17 7/18/7
