# Blender v2.92.0 OBJ File: 'Frame workshop.blend'
# www.blender.org
mtllib Frame as seperate objects.mtl
o Single_object_frame_Cube
v 1.000000 2.000000 1.000000
v 1.000000 0.000000 1.000000
v -1.000000 2.000000 1.000000
v -1.000000 0.000000 1.000000
v -1.000000 0.000000 1.026031
v -1.000000 2.000000 1.026031
v 1.000000 2.000000 1.026031
v 1.000000 0.000000 1.026031
v -0.839707 0.160293 1.047040
v -0.839707 1.839707 1.047040
v 0.839707 1.839707 1.047040
v 0.839707 0.160293 1.047040
v 0.917280 1.917280 1.091853
v 0.857238 1.857238 1.094172
v 0.857238 0.142762 1.094172
v 0.917280 0.082720 1.091853
v -0.857238 1.857238 1.094172
v -0.917280 1.917280 1.091853
v -0.917280 0.082720 1.091853
v -0.857238 0.142762 1.094172
vt 0.996424 0.006497
vt 0.996424 0.964024
vt 0.979711 0.964088
vt 0.979711 0.006561
vt 0.528279 0.074910
vt 0.528277 0.895735
vt 0.504202 0.887342
vt 0.504204 0.083304
vt 0.607658 0.964086
vt 0.607658 0.006561
vt 0.624370 0.006497
vt 0.624370 0.964022
vt 0.873185 0.006497
vt 0.873185 0.964024
vt 0.856472 0.964088
vt 0.856472 0.006561
vt 0.749149 0.006497
vt 0.749149 0.964022
vt 0.732437 0.964086
vt 0.732437 0.006561
vt 0.500333 0.007658
vt 0.500333 0.502005
vt 0.005987 0.502005
vt 0.005987 0.007658
vt 0.900333 0.074911
vt 0.900333 0.895739
vt 0.876257 0.887346
vt 0.876257 0.083304
vt 0.805860 0.924485
vt 0.805861 0.046165
vt 0.777093 0.074911
vt 0.777093 0.895739
vt 0.753017 0.887346
vt 0.753017 0.083304
vt 0.681825 0.924483
vt 0.681825 0.046165
vt 0.929100 0.924485
vt 0.929100 0.046165
vt 0.557046 0.924483
vt 0.557047 0.046165
vt 0.653056 0.895735
vt 0.653058 0.074910
vt 0.628980 0.887342
vt 0.628982 0.083304
vt 0.423418 0.510075
vt 0.423418 0.925181
vt 0.008312 0.925181
vt 0.008312 0.510075
vn 0.0000 1.0000 0.0000
vn 0.9373 0.0000 0.3486
vn -1.0000 0.0000 0.0000
vn 0.0000 -1.0000 0.0000
vn 1.0000 0.0000 0.0000
vn 0.0000 0.0000 -1.0000
vn 0.0000 -0.9373 0.3486
vn 0.0000 -0.6226 0.7825
vn 0.0000 0.9373 0.3486
vn 0.6226 0.0000 0.7825
vn 0.0000 0.6226 0.7825
vn -0.6226 0.0000 0.7825
vn -0.0386 0.0000 0.9993
vn 0.0386 0.0000 0.9993
vn 0.0000 0.0386 0.9993
vn 0.0000 -0.0386 0.9993
vn -0.9373 0.0000 0.3486
vn 0.0000 0.0000 1.0000
usemtl Frame
s off
f 1/1/1 3/2/1 6/3/1 7/4/1
f 17/5/2 20/6/2 9/7/2 10/8/2
f 5/9/3 6/10/3 3/11/3 4/12/3
f 4/13/4 2/14/4 8/15/4 5/16/4
f 2/17/5 1/18/5 7/19/5 8/20/5
f 4/21/6 3/22/6 1/23/6 2/24/6
f 14/25/7 17/26/7 10/27/7 11/28/7
f 16/29/8 19/30/8 5/16/8 8/15/8
f 20/31/9 15/32/9 12/33/9 9/34/9
f 13/35/10 16/36/10 8/20/10 7/19/10
f 18/37/11 13/38/11 7/4/11 6/3/11
f 19/39/12 18/40/12 6/10/12 5/9/12
f 20/6/13 17/5/13 18/40/13 19/39/13
f 14/41/14 15/42/14 16/36/14 13/35/14
f 13/38/15 18/37/15 17/26/15 14/25/15
f 19/30/16 16/29/16 15/32/16 20/31/16
f 15/42/17 14/41/17 11/43/17 12/44/17
f 9/45/18 12/46/18 11/47/18 10/48/18
